<svg width="51" height="51" viewBox="0 0 51 51" fill="none" xmlns="http://www.w3.org/2000/svg">
<g clip-path="url(#clip0_429_2525)">
<path d="M19.8828 24.0896V24.0735C18.014 24.0735 16.5059 25.6184 16.5059 27.5172C16.5059 29.4161 18.014 30.9611 19.8828 30.9611C21.7517 30.9611 23.2599 29.4162 23.2599 27.5334C23.2599 25.6343 21.7353 24.0896 19.8828 24.0896Z" fill="#151515"/>
<path d="M25.8335 1.22827C12.35 1.22827 1.41943 12.1588 1.41943 25.6423C1.41943 39.1258 12.35 50.0564 25.8335 50.0564C39.317 50.0564 50.2476 39.1258 50.2476 25.6423C50.2476 12.1588 39.317 1.22827 25.8335 1.22827ZM34.8661 38.5243C34.8661 38.5243 33.6362 37.156 32.7514 35.9495C37.0136 34.7425 38.6205 32.3288 38.6205 32.3288C34.189 35.0687 30.0502 36.1229 25.8335 35.9859C21.6168 36.1226 17.478 35.0687 13.047 32.3288C13.047 32.3288 14.6534 34.7425 18.9161 35.9495C18.031 37.1564 16.8015 38.5243 16.8015 38.5243C9.48965 38.3633 6.65381 33.8897 6.48975 34.0828C6.48975 24.1218 11.3257 16.0111 11.3257 16.0111C15.6534 12.9056 19.6861 12.7765 20.4565 12.7604L20.9484 13.2271C15.4239 14.7719 12.7519 17.1858 12.7519 17.1858C17.4934 14.8957 21.9623 14.0901 25.8335 14.0418C29.7048 14.0907 34.1733 14.8957 38.9151 17.1858C38.9151 17.1858 36.2431 14.7719 30.7187 13.2271L31.2104 12.7604C31.981 12.7765 36.0136 12.9052 40.3413 16.0111C40.3413 16.0111 45.1772 24.1216 45.1772 34.0828C45.0132 33.8897 42.1773 38.3633 34.8661 38.5243Z" fill="#151515"/>
<path d="M31.7843 24.0732V24.0894C29.9318 24.0894 28.4072 25.6343 28.4072 27.5331C28.4072 29.4159 29.9155 30.9608 31.7843 30.9608C33.653 30.9608 35.1612 29.4159 35.1612 27.517C35.1612 25.6181 33.6531 24.0732 31.7843 24.0732Z" fill="#151515"/>
</g>
<defs>
<clipPath id="clip0_429_2525">
<rect width="50" height="50" fill="white" transform="translate(0.833496 0.642334)"/>
</clipPath>
</defs>
</svg>
