<svg width="25" height="25" viewBox="0 0 25 25" fill="none" xmlns="http://www.w3.org/2000/svg">
<g clip-path="url(#clip0_429_2532)">
<path d="M10.1598 5.43871L10.1886 5.43391C11.1924 5.27791 11.9322 5.17051 12.2604 5.12611C12.2852 5.12624 12.3094 5.11846 12.3294 5.10391C12.3294 5.07031 12.2052 4.98811 12.0192 4.86391C11.8332 4.73971 11.667 4.64851 11.3982 4.64851C11.0922 4.64851 10.6626 4.66591 10.1208 4.69951H10.0992L10.0812 4.68751C9.90122 4.56751 9.71762 4.45471 9.58382 4.38271C9.42422 4.30291 9.40982 4.31371 9.32942 4.43371L9.30362 4.47571C9.25802 4.54951 9.20102 4.64071 9.12362 4.75231L9.10682 4.77691H9.07682C8.22362 4.85431 7.51682 4.93471 7.18562 4.99111C6.72902 5.06251 6.59222 5.19511 6.43502 5.38891C6.35468 5.51127 6.29016 5.64332 6.24302 5.78191C6.20942 5.86591 6.17102 5.96191 6.12302 6.06151C6.12096 6.06518 6.11916 6.06899 6.11762 6.07291C6.15103 6.07395 6.18445 6.07113 6.21722 6.06451C6.99002 5.93131 7.70462 5.81431 8.34062 5.71591L8.48702 5.69311L8.40362 5.81311C6.42362 8.71351 5.11442 10.6941 4.40762 11.8683C4.40269 11.8763 4.39847 11.8848 4.39502 11.8935H4.41422C4.50984 11.8892 4.60495 11.8772 4.69862 11.8575C4.92209 11.8157 5.14827 11.79 5.37542 11.7807C5.61542 11.7807 5.76662 11.7291 5.99342 11.4363C7.37822 9.62731 9.49622 6.49171 10.1412 5.45491L10.1598 5.43871Z" fill="black"/>
<path d="M20.9853 4.15722C19.307 2.47902 17.1688 1.33616 14.8411 0.873151C12.5133 0.410142 10.1006 0.647782 7.90787 1.55602C5.71518 2.46426 3.84105 4.0023 2.52247 5.97566C1.20389 7.94902 0.500082 10.2691 0.50005 12.6424C0.49295 15.1023 1.24749 17.504 2.66005 19.5178C2.46145 19.8226 2.27845 20.1076 2.11465 20.3668C2.10348 20.384 2.09499 20.4029 2.08945 20.4226C2.19853 20.4097 2.30581 20.3846 2.40925 20.3476C2.65339 20.2712 2.90288 20.213 3.15565 20.1736C3.42459 20.5066 3.71099 20.825 4.01365 21.1276C5.12794 22.242 6.45081 23.126 7.90674 23.7291C9.36266 24.3322 10.9231 24.6427 12.499 24.6427C14.0749 24.6428 15.6354 24.3324 17.0914 23.7294C18.5473 23.1264 19.8703 22.2425 20.9846 21.1282C22.099 20.0139 22.983 18.6911 23.5861 17.2351C24.1893 15.7792 24.4997 14.2187 24.4998 12.6428C24.4998 11.0669 24.1895 9.50646 23.5865 8.05049C22.9834 6.59453 22.0995 5.27159 20.9853 4.15722ZM20.1014 20.2438C19.1032 21.2421 17.9182 22.034 16.6139 22.5742C15.3097 23.1145 13.9118 23.3926 12.5 23.3926C11.0883 23.3926 9.69042 23.1145 8.38617 22.5742C7.08192 22.034 5.89685 21.2421 4.89865 20.2438C4.64065 19.9858 4.39765 19.7174 4.16965 19.4386C4.75225 18.6616 5.37505 17.8222 5.91505 17.0668L5.93065 17.0446L5.95765 17.041C6.57565 16.9498 7.29925 16.8154 7.94185 16.6726C8.08687 16.6458 8.22501 16.5901 8.34805 16.5088C8.52325 16.3618 8.67205 16.1116 8.68945 16.0222C8.66307 16.0224 8.63675 16.025 8.61085 16.03C8.06245 16.0984 7.38445 16.1692 6.64885 16.2352L6.51265 16.2472L6.59065 16.135C6.96625 15.595 7.35865 15.0286 7.68745 14.5462C7.81957 14.365 7.9271 14.1671 8.00725 13.9576L8.01985 13.9192L8.06005 13.9144C8.67205 13.8328 9.41605 13.7188 10.2722 13.576C10.6226 13.516 10.739 13.468 10.8368 13.3438C10.9273 13.2429 11.0001 13.1275 11.0522 13.0024C11.0525 13.0008 11.0525 12.9992 11.0522 12.9976C10.199 13.03 8.98765 13.1278 7.87825 13.252L7.84105 13.2562L7.81945 13.2262C7.72333 13.0821 7.61297 12.9481 7.49005 12.826C7.46485 12.8038 7.44865 12.802 7.43845 12.8038C7.41265 12.8038 7.36525 12.8296 7.28605 12.931C7.23145 13.0036 7.16605 13.081 7.10605 13.162C7.06165 13.2166 7.01605 13.2724 6.97045 13.3306L6.95425 13.3516L6.92785 13.3546C6.50245 13.4068 6.09205 13.4668 5.72785 13.5202L5.53285 13.549C5.50561 13.553 5.47899 13.5605 5.45365 13.5712C5.45267 13.5814 5.45267 13.5916 5.45365 13.6018C5.47285 13.7566 5.55145 13.9756 5.63785 14.053C5.70145 14.1166 5.90905 14.1346 6.25645 14.1088L6.39505 14.098L6.31285 14.2102C5.81965 14.8858 5.25385 15.6928 4.76605 16.3924L4.74925 16.4164L4.71985 16.4194C4.38925 16.4536 4.12465 16.4842 3.91165 16.5118C3.89545 16.5118 3.86905 16.5184 3.86065 16.531C3.85225 16.5436 3.84565 16.564 3.87205 16.6432C3.94825 16.8436 4.02805 17.0536 4.16665 17.155L4.21705 17.1916L4.18165 17.2432C3.91405 17.6344 3.65425 18.0178 3.40645 18.3874C2.02524 16.2048 1.47592 13.5978 1.85898 11.0434C2.24203 8.48899 3.53185 6.15784 5.49253 4.47632C7.45321 2.79481 9.95369 1.87531 12.5366 1.88602C15.1196 1.89672 17.6124 2.83691 19.559 4.53462C19.5548 4.5398 19.5508 4.54521 19.5471 4.55082C19.0401 5.33982 18.4262 6.26682 17.7764 7.25082C17.2868 7.99002 16.7804 8.75502 16.3196 9.46182C15.9744 9.91776 15.5441 10.3025 15.0524 10.5946C14.621 10.8514 14.1902 11.005 13.901 11.005C13.7135 11.0134 13.5268 10.9755 13.3574 10.8946L13.3196 10.8736L13.3244 10.831C13.4354 9.81882 14.8106 8.71662 15.9644 8.40822C15.9938 8.40162 16.0412 8.38422 16.0508 8.34042C16.058 8.30922 16.0592 8.19162 15.7874 7.97742C15.5516 7.79082 15.3704 7.71462 15.161 7.71462C14.4776 7.71462 13.3982 8.37882 12.803 9.16482C12.5858 9.45642 12.4526 9.73862 12.4034 10.0114C11.7572 10.642 10.9892 11.0152 10.2914 11.0152C10.1388 11.0169 9.98683 10.995 9.84085 10.9504L9.80065 10.9366L9.79705 10.8946C9.78821 10.7628 9.79546 10.6305 9.81865 10.5004L9.82465 10.4602L9.86365 10.4488C10.5176 10.2532 11.117 10.0018 11.5082 9.75882C12.0668 9.41022 12.3482 9.09882 12.3482 8.83902C12.3482 8.64582 12.2474 8.47902 12.0116 8.27262L12.0002 8.26002C11.7248 7.84662 11.5256 7.76562 11.2748 7.76562C10.6106 7.76562 9.61285 8.37042 9.05005 9.11382C8.64925 9.65382 8.47525 10.273 8.63005 10.6174C8.77958 10.9617 9.03943 11.2465 9.36865 11.4268C9.53065 11.5126 9.72865 11.5528 9.98425 11.5528C10.7444 11.5528 11.6828 11.0416 12.3842 10.3018C12.3968 10.6108 12.5216 10.906 12.761 11.185C13.061 11.5222 13.2332 11.6344 13.6766 11.6344C14.3198 11.6344 15.1628 11.0128 15.7832 10.3402C15.656 10.5802 15.596 10.7464 15.596 10.8802C15.596 11.038 15.6663 11.1742 16.0089 11.3242C16.238 11.425 16.4337 11.4826 16.5488 11.4826C16.664 11.4826 16.739 11.3848 17.0468 10.8286C17.1068 10.7086 17.177 10.5928 17.2418 10.4794C17.2838 10.4074 17.3246 10.3366 17.3618 10.2652L17.3714 10.252C17.984 9.60222 18.6507 9.00882 19.1553 8.66442L19.3688 8.51922L19.2488 8.74722C19.0987 9.01607 18.9338 9.27646 18.755 9.52722C18.542 9.83862 18.3218 10.1608 18.1844 10.4584C18.0494 10.7728 18.107 11.0584 18.3554 11.308C18.5846 11.527 18.7334 11.5972 18.9668 11.5972C19.61 11.5972 20.3468 10.9408 20.6504 10.594C20.7272 10.5082 20.7272 10.4596 20.7272 10.4416C20.7277 10.4106 20.7263 10.3795 20.723 10.3486C20.303 10.7236 19.8284 10.9864 19.3808 11.0884L19.2896 11.1088L19.3028 11.0164C19.3484 10.705 19.6521 10.2028 19.946 9.71742C20.1144 9.45342 20.2674 9.17997 20.4044 8.89842C20.5526 8.56302 20.5334 8.41182 20.3186 8.22402C20.2089 8.10836 20.058 8.04048 19.8986 8.03502C19.6586 8.03502 19.0502 8.37162 18.2654 8.93502L18.0146 9.11502L18.173 8.85042C18.8474 7.72002 19.3923 6.87522 19.8878 6.19062C20.1584 5.81562 20.2994 5.53062 20.372 5.32062C22.2301 7.30619 23.2602 9.92609 23.2521 12.6454C23.253 13.6836 23.104 14.7164 22.8098 15.712C22.4954 15.7888 22.0928 15.862 21.6098 15.9304L21.4718 15.9496L21.5468 15.8326C22.1774 14.8438 22.2098 14.6794 21.8366 14.368C21.775 14.313 21.7182 14.2528 21.6668 14.188C21.5936 14.0992 21.5558 14.0566 21.4982 14.0566C21.4232 14.0566 21.272 14.2096 21.0368 14.5234C20.6036 15.1048 20.27 15.5704 19.9208 16.0792L19.9046 16.1032L19.8752 16.1068C19.604 16.1368 19.3238 16.1668 19.079 16.2088C18.959 16.2238 18.9368 16.2418 18.935 16.2436C18.938 16.2904 19.0334 16.4806 19.1636 16.6006C19.2292 16.6521 19.309 16.6821 19.3922 16.6864L19.4972 16.696L19.4408 16.7848C19.2836 17.0314 19.1156 17.2894 18.9326 17.5702L18.7226 17.8924V17.8954C18.0026 18.8554 17.0103 19.4482 16.1288 19.4482C15.9762 19.4502 15.8242 19.4283 15.6782 19.3834L15.638 19.3702L15.6344 19.3282C15.6257 19.1963 15.6327 19.0637 15.6554 18.9334L15.662 18.8938L15.7004 18.8818C16.355 18.6868 16.9545 18.4348 17.3456 18.1918C17.9037 17.8432 18.1856 17.5318 18.1856 17.2726C18.1856 17.0788 18.0848 16.9096 17.849 16.7056L17.8376 16.693C17.5622 16.2796 17.363 16.1986 17.1116 16.1986C16.448 16.1986 15.4496 16.8034 14.8874 17.5468C14.6875 17.8096 14.5406 18.1087 14.4548 18.4276C13.7852 19.0714 12.941 19.4992 12.2732 19.4992C12.1454 19.5048 12.0183 19.4773 11.9042 19.4194L11.8838 19.4086L11.8754 19.3876C11.8244 19.2604 11.8436 19.1026 11.8718 18.952L11.879 18.9148L11.9144 18.9028C12.6152 18.6664 13.178 18.4228 13.541 18.1918C14.2802 17.7172 14.381 17.4352 14.381 17.2006C14.381 17.0206 14.2538 16.8016 14.057 16.6462L14.0438 16.6324C13.9628 16.5124 13.8926 16.4686 13.7534 16.3756L13.733 16.3624C13.5918 16.2583 13.4214 16.201 13.2458 16.1986C12.6176 16.1986 11.7032 16.7506 11.1644 17.455C10.8758 17.8348 10.706 18.184 10.652 18.5014C10.0022 19.264 9.46705 19.6534 9.11725 19.612L9.06565 19.6054L9.06085 19.5532C9.03505 19.24 9.30085 18.6736 9.87145 17.821C12.2558 14.2648 12.5156 13.7782 12.5156 13.3876C12.5156 13.1074 12.2714 12.9712 11.927 12.8098C11.867 12.7828 11.846 12.7924 11.8118 12.8404C10.8728 14.1688 9.79465 15.7738 8.42005 17.8918C8.07145 18.4318 7.84645 19.0234 7.84645 19.4044C7.84054 19.5235 7.86431 19.6423 7.91562 19.7499C7.96694 19.8576 8.04419 19.9508 8.14045 20.0212C8.36125 20.1976 8.57245 20.2834 8.78665 20.2834C9.33505 20.2834 9.95725 19.8034 10.6418 18.8488C10.6696 19.0663 10.7617 19.2704 10.9064 19.435C11.3582 19.9708 11.6618 20.0788 12.0056 20.0788C12.7628 20.0788 13.6934 19.5514 14.4092 18.769C14.4082 18.8655 14.4266 18.9612 14.4632 19.0504C14.6129 19.393 14.8721 19.6762 15.2 19.8556C15.3626 19.9414 15.56 19.9816 15.8162 19.9816C16.6202 19.9816 17.624 19.4098 18.3333 18.6016C18.1358 19.111 18.2619 19.387 18.5457 19.6516C18.747 19.8589 19.0223 19.9778 19.3112 19.9822C19.9832 19.9822 20.744 19.435 21.1916 18.9664L21.2085 18.949C20.8738 19.4089 20.5037 19.8418 20.1014 20.2438ZM9.93145 10.1416L10.0064 9.98982C10.3616 9.26982 11.12 8.60622 11.771 8.44902L11.8448 8.43102L11.8496 8.50662C11.8736 8.84802 11.6942 9.13182 11.2496 9.45522C11.0126 9.64242 10.5668 9.88182 10.088 10.0774L9.93145 10.1416ZM19.55 19.3516L19.4636 19.357L19.484 19.2724C19.5812 18.8734 20.0528 18.1144 21.143 16.4524L21.1574 16.4314L21.4382 16.3654C21.6626 16.3126 21.8396 16.2712 21.9602 16.2412C22.4534 16.1182 22.6202 16.0084 22.7222 15.9178L22.7546 15.883C22.4322 16.9087 21.9559 17.8796 21.3422 18.7624C21.3587 18.7326 21.3715 18.701 21.3806 18.6682L21.395 18.622C21.413 18.562 21.4298 18.5104 21.44 18.4696C20.912 18.9694 20.1764 19.3138 19.55 19.3516ZM15.7646 18.5716L15.8396 18.4198C16.1948 17.6998 16.9532 17.0398 17.6042 16.879L17.678 16.861L17.6828 16.9372C17.7069 17.2786 17.5268 17.5618 17.0828 17.8852C16.8458 18.0724 16.4 18.3118 15.9212 18.5074L15.7646 18.5716ZM11.9882 18.5854L12.0674 18.4294C12.4088 17.7556 13.1654 16.9438 13.7918 16.8094L13.8518 16.7968L13.8686 16.8568C13.9682 17.2054 13.7792 17.5666 13.322 17.9002C13.0592 18.0946 12.6542 18.31 12.1502 18.5224L11.9882 18.5854Z" fill="black"/>
</g>
<defs>
<clipPath id="clip0_429_2532">
<rect width="24" height="24" fill="white" transform="translate(0.5 0.642334)"/>
</clipPath>
</defs>
</svg>
