<svg width="51" height="51" viewBox="0 0 51 51" fill="none" xmlns="http://www.w3.org/2000/svg">
<g clip-path="url(#clip0_429_2521)">
<path d="M25.8335 0.642334C12.0486 0.642334 0.833496 11.8574 0.833496 25.6423C0.833496 39.4263 12.0486 50.6423 25.8335 50.6423C39.6174 50.6423 50.8335 39.4263 50.8335 25.6423C50.8335 11.8574 39.6194 0.642334 25.8335 0.642334ZM36.9861 19.9205C36.9972 20.1682 37.0032 20.418 37.0032 20.6677C37.0032 28.2716 31.217 37.0366 20.6303 37.0366C17.3807 37.0366 14.3556 36.087 11.8099 34.4537C12.26 34.507 12.7182 34.5342 13.1824 34.5342C15.8792 34.5342 18.3595 33.6138 20.3292 32.0711C17.8117 32.0248 15.6859 30.3612 14.9538 28.0743C15.3042 28.1407 15.6657 28.178 16.0353 28.178C16.5599 28.178 17.0695 28.1095 17.5519 27.9776C14.9195 27.4499 12.9367 25.1247 12.9367 22.3353C12.9367 22.3111 12.9367 22.286 12.9377 22.2628C13.7131 22.6928 14.6003 22.9526 15.5429 22.9818C14.0001 21.9516 12.9841 20.1894 12.9841 18.1935C12.9841 17.1381 13.267 16.1493 13.7625 15.2993C16.5992 18.7816 20.8407 21.0715 25.622 21.3132C25.5233 20.8913 25.474 20.4532 25.474 20.0011C25.474 16.824 28.0499 14.247 31.227 14.247C32.8826 14.247 34.3759 14.9459 35.4273 16.0637C36.7394 15.8059 37.9679 15.3285 39.0827 14.6669C38.6497 16.0113 37.7404 17.1381 36.5491 17.8511C37.7142 17.7121 38.8259 17.404 39.8541 16.9458C39.0867 18.0978 38.1109 19.1119 36.9861 19.9205Z" fill="#151515"/>
</g>
<defs>
<clipPath id="clip0_429_2521">
<rect width="50" height="50" fill="white" transform="translate(0.833496 0.642334)"/>
</clipPath>
</defs>
</svg>
